<?xml version="1.0"?>
<svg xmlns="http://www.w3.org/2000/svg" viewBox="0 0 64 64" width="512" height="512"><g id="flat"><path d="M40,35.52V32H24v3.52a14,14,0,1,0,16,0Z" style="fill:#2f3e4f"/><path d="M35,40.938h0a3.761,3.761,0,0,0-4.971,0h0a3.008,3.008,0,0,0,0,4.531h0L35,50l4.971-4.531h0a3.008,3.008,0,0,0,0-4.531h0A3.761,3.761,0,0,0,35,40.938Z" style="fill:#dd3e46"/><path d="M31.89,57.994C28.469,57.614,22,55.245,22,49h2c0,6.013,7.781,6.969,8.112,7.006Z" style="fill:#cfdfe8"/><rect x="22" y="45" width="2" height="2" style="fill:#cfdfe8"/><path d="M36,24a3.972,3.972,0,0,0-3,1.38V14H31V25.38A3.972,3.972,0,0,0,28,24H22a4,4,0,0,0,4,4h5v4h2V28h5a4,4,0,0,0,4-4Z" style="fill:#5dbf86"/><path d="M30,11h2a0,0,0,0,1,0,0v0a8,8,0,0,1-8,8H22a0,0,0,0,1,0,0v0A8,8,0,0,1,30,11Z" style="fill:#f98c96"/><path d="M40,3h2a0,0,0,0,1,0,0V3a8,8,0,0,1-8,8H32a0,0,0,0,1,0,0v0A8,8,0,0,1,40,3Z" transform="translate(74 14) rotate(-180)" style="fill:#f98c96"/><path d="M22,3h2a8,8,0,0,1,8,8v0a0,0,0,0,1,0,0H30a8,8,0,0,1-8-8V3A0,0,0,0,1,22,3Z" style="fill:#f98c96"/><path d="M32,11h2a8,8,0,0,1,8,8v0a0,0,0,0,1,0,0H40a8,8,0,0,1-8-8v0A0,0,0,0,1,32,11Z" transform="translate(74 30) rotate(180)" style="fill:#f98c96"/><circle cx="32" cy="11" r="4" style="fill:#fcf05a"/></g></svg>
