<?xml version="1.0"?>
<svg xmlns="http://www.w3.org/2000/svg" xmlns:xlink="http://www.w3.org/1999/xlink" viewBox="0 0 64 64" width="512" height="512"><defs><linearGradient id="linear-gradient" x1="1" y1="32" x2="62.66" y2="32" gradientUnits="userSpaceOnUse"><stop offset="0" stop-color="#039bca"/><stop offset="0.207" stop-color="#3a7ac4"/><stop offset="0.598" stop-color="#9c3fb9"/><stop offset="0.871" stop-color="#da1ab2"/><stop offset="1" stop-color="#f20baf"/></linearGradient><linearGradient id="linear-gradient-4" y1="50" x2="62.66" y2="50" xlink:href="#linear-gradient"/><linearGradient id="linear-gradient-6" y1="14" x2="62.66" y2="14" xlink:href="#linear-gradient"/></defs><g id="Gradient_outline" data-name="Gradient outline"><path d="M59,2H5A3,3,0,0,0,2,5V59a3,3,0,0,0,3,3H59a3,3,0,0,0,3-3V5A3,3,0,0,0,59,2Zm1,57a1,1,0,0,1-1,1H5a1,1,0,0,1-1-1V5A1,1,0,0,1,5,4H59a1,1,0,0,1,1,1Z" style="fill:url(#linear-gradient)"/><path d="M32,39a5,5,0,0,0,.93-9.906C32.679,27.327,31.67,25,29,25v2c1.287,0,1.744,1.241,1.907,2.129A5,5,0,0,0,32,39Zm0-8a3,3,0,1,1-3,3A3,3,0,0,1,32,31Z" style="fill:url(#linear-gradient)"/><path d="M42,24V40H58V24Zm9.919,2L50,28.4,48.081,26ZM44,30.414,45.586,32,44,33.586ZM48.081,38,50,35.6,51.919,38ZM56,33.586,54.414,32,56,30.414Zm0-6-3.707,3.707a1,1,0,0,0,0,1.414L56,36.414V38H54.48l-3.7-4.625a1.034,1.034,0,0,0-1.562,0L45.52,38H44V36.414l3.707-3.707a1,1,0,0,0,0-1.414L44,27.586V26h1.52l3.7,4.625a1.034,1.034,0,0,0,1.562,0L54.48,26H56Z" style="fill:url(#linear-gradient)"/><path d="M24,42V58H40V42Zm9.919,2L32,46.4,30.081,44ZM26,48.414,27.586,50,26,51.586ZM30.081,56,32,53.6,33.919,56ZM38,51.586,36.414,50,38,48.414Zm0-6-3.707,3.707a1,1,0,0,0,0,1.414L38,54.414V56H36.48l-3.7-4.625a1.034,1.034,0,0,0-1.562,0L27.52,56H26V54.414l3.707-3.707a1,1,0,0,0,0-1.414L26,45.586V44h1.52l3.7,4.625a1.034,1.034,0,0,0,1.562,0L36.48,44H38Z" style="fill:url(#linear-gradient-4)"/><path d="M6,24V40H22V24Zm9.919,2L14,28.4,12.081,26ZM8,30.414,9.586,32,8,33.586ZM12.081,38,14,35.6,15.919,38ZM20,33.586,18.414,32,20,30.414Zm0-6-3.707,3.707a1,1,0,0,0,0,1.414L20,36.414V38H18.48l-3.7-4.625a1.034,1.034,0,0,0-1.562,0L9.52,38H8V36.414l3.707-3.707a1,1,0,0,0,0-1.414L8,27.586V26H9.52l3.7,4.625a1.034,1.034,0,0,0,1.562,0L18.48,26H20Z" style="fill:url(#linear-gradient)"/><path d="M6,6V22H22V6Zm9.919,2L14,10.4,12.081,8ZM8,12.414,9.586,14,8,15.586ZM12.081,20,14,17.6,15.919,20ZM20,15.586,18.414,14,20,12.414Zm0-6-3.707,3.707a1,1,0,0,0,0,1.414L20,18.414V20H18.48l-3.7-4.625a1.034,1.034,0,0,0-1.562,0L9.52,20H8V18.414l3.707-3.707a1,1,0,0,0,0-1.414L8,9.586V8H9.52l3.7,4.625a1.034,1.034,0,0,0,1.562,0L18.48,8H20Z" style="fill:url(#linear-gradient-6)"/><path d="M42,6V22H58V6Zm9.919,2L50,10.4,48.081,8ZM44,12.414,45.586,14,44,15.586ZM48.081,20,50,17.6,51.919,20ZM56,15.586,54.414,14,56,12.414Zm0-6-3.707,3.707a1,1,0,0,0,0,1.414L56,18.414V20H54.48l-3.7-4.625a1.034,1.034,0,0,0-1.562,0L45.52,20H44V18.414l3.707-3.707a1,1,0,0,0,0-1.414L44,9.586V8h1.52l3.7,4.625a1.034,1.034,0,0,0,1.562,0L54.48,8H56Z" style="fill:url(#linear-gradient-6)"/><path d="M51.93,47.094C51.679,45.327,50.67,43,48,43v2c1.287,0,1.744,1.241,1.907,2.129a5,5,0,1,0,2.023-.035ZM51,55a3,3,0,1,1,3-3A3,3,0,0,1,51,55Z" style="fill:url(#linear-gradient-4)"/><path d="M14.93,47.094C14.679,45.327,13.67,43,11,43v2c1.287,0,1.744,1.241,1.907,2.129a5,5,0,1,0,2.023-.035ZM14,55a3,3,0,1,1,3-3A3,3,0,0,1,14,55Z" style="fill:url(#linear-gradient-4)"/><path d="M32,21a5,5,0,0,0,.93-9.906C32.679,9.327,31.67,7,29,7V9c1.287,0,1.744,1.241,1.907,2.129A5,5,0,0,0,32,21Zm0-8a3,3,0,1,1-3,3A3,3,0,0,1,32,13Z" style="fill:url(#linear-gradient-6)"/></g></svg>
